<?xml version="1.0" encoding="utf-8"?>
<!-- Generator: Adobe Illustrator 21.1.0, SVG Export Plug-In . SVG Version: 6.00 Build 0)  -->
<svg version="1.1" id="圖層_1" xmlns="http://www.w3.org/2000/svg" xmlns:xlink="http://www.w3.org/1999/xlink" x="0px" y="0px"
	 viewBox="0 0 92 77.4" style="enable-background:new 0 0 92 77.4;" xml:space="preserve">
<style type="text/css">
	.st0{fill:#FFFFFF;}
	.st1{fill:url(#SVGID_1_);}
	.st2{fill:url(#SVGID_2_);}
	.st3{fill:url(#SVGID_3_);}
	.st4{fill:url(#SVGID_4_);}
	.st5{fill:url(#SVGID_5_);}
</style>
<g>
	<g>
		<path class="st0" d="M80.1,46.6c0,5.8-4.7,10.5-10.4,10.5H13.3V15.8c0-5.8,4.6-10.4,10.4-10.4h56.4C80.1,5.4,80.1,46.6,80.1,46.6z
			"/>
		<g>
			
				<linearGradient id="SVGID_1_" gradientUnits="userSpaceOnUse" x1="4.4961" y1="383.7376" x2="20.8204" y2="383.7376" gradientTransform="matrix(1.125 0 0 1.125 52.9828 -397.6048)">
				<stop  offset="0" style="stop-color:#0B763F"/>
				<stop  offset="0.2007" style="stop-color:#24813E"/>
				<stop  offset="0.7341" style="stop-color:#4DA039"/>
				<stop  offset="1" style="stop-color:#5AAC35"/>
			</linearGradient>
			<path class="st1" d="M61.7,36.1H66c0.1,0,0.4,0,0.5-0.1c0.9-0.2,1.5-0.9,1.5-1.9s-0.7-1.8-1.5-1.9c-0.1,0-0.4-0.1-0.5-0.1h-4.3
				V36.1z"/>
			
				<linearGradient id="SVGID_2_" gradientUnits="userSpaceOnUse" x1="4.4943" y1="381.1598" x2="20.8211" y2="381.1598" gradientTransform="matrix(1.125 0 0 1.125 52.9828 -397.6048)">
				<stop  offset="0" style="stop-color:#0B763F"/>
				<stop  offset="0.2007" style="stop-color:#24813E"/>
				<stop  offset="0.7341" style="stop-color:#4DA039"/>
				<stop  offset="1" style="stop-color:#5AAC35"/>
			</linearGradient>
			<path class="st2" d="M65.5,8.9c-4.1,0-7.4,3.3-7.4,7.5v7.7h10.5c0.2,0,0.5,0,0.7,0c2.4,0.1,4.1,1.3,4.1,3.5
				c0,1.7-1.2,3.1-3.4,3.4v0c2.4,0.2,4.3,1.5,4.3,3.6c0,2.2-2,3.7-4.7,3.7H58.1v15.2H69c4.1,0,7.4-3.3,7.4-7.5V8.9H65.5z"/>
			
				<linearGradient id="SVGID_3_" gradientUnits="userSpaceOnUse" x1="4.4968" y1="378.3154" x2="20.8163" y2="378.3154" gradientTransform="matrix(1.125 0 0 1.125 52.9828 -397.6048)">
				<stop  offset="0" style="stop-color:#0B763F"/>
				<stop  offset="0.2007" style="stop-color:#24813E"/>
				<stop  offset="0.7341" style="stop-color:#4DA039"/>
				<stop  offset="1" style="stop-color:#5AAC35"/>
			</linearGradient>
			<path class="st3" d="M67.5,28.1c0-1-0.7-1.6-1.5-1.8c-0.1,0-0.3-0.1-0.4-0.1h-3.9v3.6h3.9c0.1,0,0.4,0,0.4-0.1
				C66.8,29.7,67.5,29.1,67.5,28.1z"/>
		</g>
		
			<linearGradient id="SVGID_4_" gradientUnits="userSpaceOnUse" x1="-32.0521" y1="381.2043" x2="-15.473" y2="381.2043" gradientTransform="matrix(1.125 0 0 1.125 52.9828 -397.6048)">
			<stop  offset="0" style="stop-color:#1F2966"/>
			<stop  offset="0.3961" style="stop-color:#1B4482"/>
			<stop  offset="0.799" style="stop-color:#135FA1"/>
			<stop  offset="1" style="stop-color:#0C69AF"/>
		</linearGradient>
		<path class="st4" d="M24.4,8.9c-4.1,0-7.4,3.3-7.4,7.5v18.4c2.1,1,4.3,1.7,6.4,1.7c2.6,0,4-1.6,4-3.7v-8.7h6.4v8.6
			c0,3.4-2.1,6.1-9.2,6.1c-4.3,0-7.6-0.9-7.6-0.9v15.7h10.9c4.1,0,7.4-3.3,7.4-7.5V8.9H24.4z"/>
		
			<linearGradient id="SVGID_5_" gradientUnits="userSpaceOnUse" x1="-13.8649" y1="381.2487" x2="2.234" y2="381.2487" gradientTransform="matrix(1.125 0 0 1.125 52.9828 -397.6048)">
			<stop  offset="0" style="stop-color:#6A2C2E"/>
			<stop  offset="0.3685" style="stop-color:#972B34"/>
			<stop  offset="0.7898" style="stop-color:#C51F37"/>
			<stop  offset="1" style="stop-color:#D61438"/>
		</linearGradient>
		<path class="st5" d="M44.9,8.9c-4.1,0-7.4,3.3-7.4,7.5v9.7c1.9-1.6,5.1-2.6,10.4-2.4c2.9,0.1,5.8,0.9,5.8,0.9v3.2
			c-1.5-0.8-3.3-1.5-5.7-1.6c-4-0.3-6.4,1.6-6.4,5.2c0,3.5,2.4,5.5,6.4,5.2c2.3-0.2,4.1-0.9,5.7-1.6v3c0,0-3,0.8-5.8,0.9
			c-5.3,0.2-8.5-0.8-10.4-2.4v17.2h10.9c4.1,0,7.4-3.3,7.4-7.5V8.9H44.9z"/>
	</g>
	<g>
		<g>
			<path class="st0" d="M6.1,63.9v4.6c0,0.9,0.2,1.3,0.4,1.5c0.5,0.7,1.3,0.9,1.9,0.9c2.3,0,2.3-1.8,2.3-2.4V64h1.2v4.6
				c0,0.5,0,1.4-0.7,2.3c-0.9,1-2.1,1.2-2.7,1.2c-0.8,0-2.2-0.2-3-1.3c-0.3-0.5-0.5-1-0.5-2.3V64L6.1,63.9L6.1,63.9z"/>
			<path class="st0" d="M13.8,66.5v-0.7h1.1v1c0.1-0.2,0.5-1.1,1.9-1.1c0.5,0,2.1,0.2,2.1,2v4.1h-1.2V68c0-0.4-0.1-0.7-0.3-1
				c-0.3-0.2-0.7-0.4-1-0.4c-0.8,0-1.6,0.6-1.6,1.8v3.5h-1.1L13.8,66.5L13.8,66.5z"/>
			<path class="st0" d="M20.9,63.9h1.3v0.5h-1.3V63.9z M21,65.7h1.1v6H21V65.7z"/>
			<path class="st0" d="M29.5,65.7c0,0.2,0,0.8,0,1V74h-1.2v-2.9c-0.1,0.1-0.2,0.3-0.5,0.5C27.3,72,26.7,72,26.5,72
				c-1.5,0-2.7-1-2.7-3.2s1.2-3,2.5-3c1.2,0,1.8,0.7,2,1.1l0.1-1L29.5,65.7L29.5,65.7z M26.6,66.5c-1.6,0-1.6,1.7-1.6,2.1
				s0.1,1.3,0.5,1.9c0.2,0.4,0.7,0.6,1.3,0.6c1.4,0,1.6-1.1,1.6-2.2C28.3,68.3,28.3,66.5,26.6,66.5z"/>
			<path class="st0" d="M32.6,65.7v3.8c0,0.6,0.1,1.3,1.3,1.3c0.5,0,1.1-0.2,1.4-0.7c0.2-0.4,0.2-0.8,0.2-1.1v-3.4h1.2v4.9
				c0,0.1,0,0.8,0.1,1.1h-1.2v-1c-0.2,0.4-0.6,1.1-1.9,1.1c-1.5,0-2.1-0.9-2.1-2v-4C31.6,65.7,32.6,65.7,32.6,65.7z"/>
			<path class="st0" d="M39.6,68.9c0,1.2,0.5,2.1,1.7,2.1c0.7,0,1.3-0.4,1.4-1.2h1.1c-0.1,0.3-0.1,0.8-0.5,1.3
				c-0.2,0.3-0.9,0.8-2.1,0.8c-1.9,0-2.7-1.2-2.7-3c0-1.2,0.2-2.1,1.2-2.8c0.5-0.4,1.3-0.4,1.6-0.4c2.7,0,2.6,2.4,2.6,3.3L39.6,68.9
				L39.6,68.9z M42.7,68.2c0-0.5-0.1-1.8-1.5-1.8c-0.7,0-1.6,0.4-1.6,1.8H42.7z"/>
			<path class="st0" d="M45.7,63.9h1.1v7.8h-1.1V63.9z"/>
			<path class="st0" d="M51.5,71.7L50.6,74h-1.2l0.9-2.3l-2.5-6h1.3l1.9,4.7l1.9-4.7h1.2L51.5,71.7z"/>
			<path class="st0" d="M60.1,68.3l-3.3-4.4h1.5l2.6,3.5l2.6-3.5h1.3l-3.3,4.5v3.3h-1.2C60.1,71.7,60.1,68.3,60.1,68.3z"/>
			<path class="st0" d="M67,65.6c2.4,0,2.9,1.9,2.9,3.1c0,1.8-1,3.2-3,3.2c-1.9,0-2.9-1.3-2.9-3.1C64,67.3,64.7,65.6,67,65.6z
				 M66.9,71.1c0.9,0,1.8-0.6,1.8-2.4c0-1.5-0.7-2.2-1.7-2.2c-0.7,0-1.9,0.4-1.9,2.3C65.2,70,65.7,71.1,66.9,71.1z"/>
			<path class="st0" d="M72.8,65.7v3.8c0,0.6,0.1,1.3,1.3,1.3c0.5,0,1.1-0.2,1.4-0.7c0.2-0.4,0.2-0.8,0.2-1.1v-3.4h1.2v4.9
				c0,0.1,0,0.8,0.1,1.1h-1.2v-1c-0.2,0.4-0.6,1.1-1.9,1.1c-1.5,0-2.1-0.9-2.1-2v-4C71.7,65.7,72.8,65.7,72.8,65.7z"/>
			<path class="st0" d="M79,66.9c0-0.4,0-0.8-0.1-1.2h1.2v1.2c0.2-0.9,0.9-1.1,1.4-1.2c0.3-0.1,0.6-0.1,0.8,0v1.1
				c-0.1,0-0.1-0.1-0.2-0.1s-0.2,0-0.3,0c-1.3,0-1.6,0.8-1.6,1.8v3.2H79V66.9L79,66.9z"/>
			<path class="st0" d="M84.3,69.9c0,0.4,0.2,1.1,1.3,1.1c0.5,0,0.8-0.1,1-0.4c0.1-0.2,0.2-0.4,0.2-0.5c0-0.6-0.4-0.7-1.3-0.9
				c-1.2-0.3-2.3-0.5-2.3-1.8c0-1.1,1-1.8,2.3-1.8c0.7,0,1.8,0.2,2.1,0.9c0.2,0.3,0.2,0.6,0.2,0.9h-1.2c0.1-0.9-0.7-1-1.2-1
				c-0.2,0-1.2,0-1.2,0.9c0,0.5,0.5,0.7,0.9,0.8c1.6,0.4,2,0.5,2.4,0.8c0.3,0.3,0.4,0.7,0.4,1.1c0,0.7-0.4,1.2-0.8,1.5
				c-0.5,0.3-1.2,0.4-1.8,0.4c-1.2,0-2.3-0.5-2.3-1.9L84.3,69.9L84.3,69.9z"/>
		</g>
	</g>
</g>
</svg>
